<svg xmlns="http://www.w3.org/2000/svg" xmlns:xlink="http://www.w3.org/1999/xlink" xmlns:lucid="lucid" width="1029.47" height="1029.47"><g transform="translate(-375.26479354150683 -115.2647935415066)" lucid:page-tab-id="0_0"><path d="M480 147.02h820v977.72H480z" stroke="#000" stroke-width="2" fill="#fff"/><use xlink:href="#a" transform="matrix(1,0,0,1,485,152.023986417875) translate(240.80462962962966 25.066666666666663)"/><use xlink:href="#b" transform="matrix(1,0,0,1,485,152.023986417875) translate(317.22314814814814 25.066666666666663)"/><use xlink:href="#c" transform="matrix(1,0,0,1,485,152.023986417875) translate(470.14722222222224 25.066666666666663)"/><use xlink:href="#d" transform="matrix(1,0,0,1,485,152.023986417875) translate(244.24259259259267 62.66666666666666)"/><use xlink:href="#e" transform="matrix(1,0,0,1,485,152.023986417875) translate(343.20370370370375 62.66666666666666)"/><g stroke="#000" stroke-opacity="0" stroke-width="2"><path d="M1240 629.48c0-193.3-156.7-350-350-350s-350 156.7-350 350 156.7 350 350 350 350-156.7 350-350zm-70 0c0 154.64-125.36 280-280 280s-280-125.36-280-280 125.36-280 280-280 280 125.36 280 280z" fill="#d7e9ff" fill-opacity="0"/><path d="M1240 629.48c0-193.3-156.7-350-350-350s-350 156.7-350 350 156.7 350 350 350 350-156.7 350-350zm-70 0c0 154.64-125.36 280-280 280s-280-125.36-280-280 125.36-280 280-280 280 125.36 280 280z" fill="#ff1014"/></g><g stroke="#000" stroke-opacity="0" stroke-width="2"><path d="M781.42 296.75C597.66 356.72 497.3 554.3 557.27 738.05c59.96 183.77 257.55 284.13 441.3 224.16 183.77-59.95 284.13-257.53 224.16-441.3-59.96-183.76-257.55-284.12-441.3-224.15zM803.14 363.3c147-47.98 305.07 32.3 353.05 179.32 47.96 147-32.33 305.07-179.34 353.05-147 47.97-305.07-32.3-353.05-179.33-47.96-147 32.33-305.07 179.34-353.04z" fill="#d7e9ff" fill-opacity="0"/><path d="M781.42 296.75c14.7-4.8 27.37-8.07 42.56-11l13.2 68.76c-12.15 2.34-22.28 4.96-34.04 8.8z" fill="#c7e8ac"/></g><g stroke="#000" stroke-opacity="0" stroke-width="2"><path d="M827.7 285.08000000000004c-190.22 34.4-316.52 216.5-282.1 406.7C580 882 762.1 1008.3 952.3 973.9c190.22-34.4 316.52-216.5 282.1-406.7-34.4-190.22-216.5-316.52-406.7-282.1zM840.14 353.94c152.17-27.53 297.85 73.5 325.38 225.68 27.53 152.17-73.5 297.85-225.68 325.38C787.68 932.55 642 831.5 614.47 679.34c-27.53-152.17 73.5-297.85 225.68-325.38z" fill="#d7e9ff" fill-opacity="0"/><path d="M827.7 285.08000000000004c7.6-1.38 14.06-2.34 21.74-3.24l8.1 69.53c-6.13.7-11.3 1.48-17.4 2.58z" fill="#5abaa7"/></g><g stroke="#000" stroke-opacity="0" stroke-width="2"><path d="M845.94 282.28000000000003c-191.76 24.32-327.5 199.5-303.16 391.26 24.34 191.76 199.52 327.5 391.28 303.16 191.76-24.34 327.5-199.52 303.16-391.28-24.34-191.76-199.52-327.5-391.28-303.15zM854.75 351.7c153.4-19.46 293.56 89.12 313.02 242.53 19.47 153.4-89.1 293.56-242.52 313.02-153.4 19.47-293.56-89.1-313.02-242.52-19.47-153.4 89.1-293.55 242.52-313.02z" fill="#d7e9ff" fill-opacity="0"/><path d="M845.94 282.28000000000003c15.34-1.96 28.4-2.8 43.86-2.8l.04 70c-12.37 0-22.82.67-35.1 2.23z" fill="#99d5ca"/></g><path d="M890 279.48c-193.3 0-350 156.7-350 350s156.7 350 350 350 350-156.7 350-350-156.7-350-350-350zm0 70c154.64 0 280 125.36 280 280s-125.36 280-280 280-280-125.36-280-280 125.36-280 280-280z" stroke="#000" stroke-opacity="0" stroke-width="2" fill="#d7e9ff" fill-opacity="0"/><path d="M890 279.48c7.73 0 14.26.2 21.98.7l-4.4 69.85c-6.17-.38-11.4-.55-17.58-.55z" stroke="#000" stroke-opacity="0" stroke-width="2" fill="#83bbe5"/><g stroke="#000" stroke-opacity="0" stroke-width="2"><path d="M702.26 334.35C538.98 437.8 490.48 654.05 593.94 817.33 697.4 980.6 913.64 1029.1 1076.9 925.65c163.3-103.46 211.8-319.7 108.34-482.98-103.46-163.28-319.7-211.78-482.98-108.32zM739.72 393.48c130.62-82.77 303.6-43.97 386.38 86.66 82.77 130.63 43.97 303.6-86.65 386.38-130.63 82.77-303.62 43.97-386.38-86.66-82.77-130.63-43.97-303.6 86.66-386.38z" fill="#d7e9ff" fill-opacity="0"/><path d="M702.26 334.35c26.13-16.55 50-27.76 79.4-37.3l21.6 66.6c-23.54 7.62-42.63 16.6-63.53 29.83z" fill="#fcc438"/></g><g stroke="#000" stroke-opacity="0" stroke-width="2"><path d="M926.3 281.9c-192.25-20.06-364.36 119.54-384.4 311.8-20.06 192.25 119.54 364.36 311.8 384.4 192.25 20.06 364.36-119.54 384.4-311.8 20.06-192.25-119.54-364.36-311.8-384.4zM919.04 351.5c153.8 16.05 265.5 153.74 249.45 307.54-16.05 153.8-153.74 265.5-307.54 249.45-153.8-16.05-265.5-153.74-249.45-307.54 16.05-153.8 153.74-265.5 307.54-249.45z" fill="#d7e9ff" fill-opacity="0"/><path d="M926.3 281.9c184.57 19.24 321.03 177.06 313.4 362.47l-69.94-2.87c6.1-148.33-103.06-274.6-250.72-290z" fill="#a3d977"/></g><g stroke="#000" stroke-opacity="0" stroke-width="2"><path d="M1095.5 913.3299999999999c156.47-113.5 191.32-332.34 77.83-488.82C1059.83 268.04 841 233.2 684.5 346.68 528.04 460.17 493.2 679 606.68 835.5 720.17 991.96 939 1026.8 1095.5 913.32zM1054.4 856.66c-125.2 90.8-300.27 62.9-391.06-62.27-90.8-125.2-62.9-300.27 62.27-391.06 125.2-90.8 300.27-62.9 391.06 62.27 90.8 125.2 62.9 300.27-62.27 391.06z" fill="#d7e9ff" fill-opacity="0"/><path d="M1095.5 913.3299999999999c-156.5 113.5-375.34 78.64-488.83-77.84-90.8-125.2-90.65-286.43.34-411.46l56.6 41.2c-72.8 100.02-72.9 229-.26 329.15 90.8 125.17 265.87 153.05 391.05 62.26z" fill="#19967d"/></g><g stroke="#000" stroke-opacity="0" stroke-width="2"><path d="M606.6 424.1c-113.43 156.52-78.5 375.36 78.02 488.8 156.52 113.42 375.36 78.48 488.78-78.04 113.43-156.52 78.5-375.35-78.02-488.78-156.52-113.43-375.36-78.5-488.78 78.02zM663.28 465.18c90.74-125.22 265.8-153.17 391.03-62.42 125.22 90.74 153.17 265.8 62.42 391.03-90.74 125.2-265.8 153.15-391.03 62.4-125.22-90.74-153.17-265.8-62.42-391.02z" fill="#d7e9ff" fill-opacity="0"/><path d="M606.6 424.1c4.53-6.26 8.53-11.43 13.45-17.4l54 44.56c-3.95 4.78-7.14 8.9-10.77 13.92z" fill="#7ab648"/></g><g stroke="#000" stroke-opacity="0" stroke-width="2"><path d="M620.27 407.03C497.1 556 518.04 776.63 667.03 899.8 816 1022.94 1036.63 1002 1159.8 853.02c123.15-148.98 102.22-369.6-46.77-492.76-148.98-123.16-369.6-102.23-492.76 46.76zM674.23 451.63c98.52-119.2 275.02-135.94 394.2-37.4 119.2 98.52 135.94 275.02 37.4 394.2-98.52 119.2-275.02 135.94-394.2 37.4-119.2-98.52-135.94-275.02-37.4-394.2z" fill="#d7e9ff" fill-opacity="0"/><path d="M620.27 407.03c4.93-5.96 9.25-10.86 14.54-16.5l51.05 47.9c-4.23 4.5-7.7 8.43-11.63 13.2z" fill="#834187"/></g><g stroke="#000" stroke-opacity="0" stroke-width="2"><path d="M634.9300000000001 390.33000000000004C502.57 531.2 509.46 752.7 650.33 885.07c140.87 132.36 362.37 125.47 494.74-15.4 132.36-140.87 125.47-362.37-15.4-494.74-140.87-132.36-362.37-125.47-494.74 15.4zM685.95 438.26c105.9-112.7 283.1-118.2 395.8-12.3 112.68 105.88 118.2 283.08 12.3 395.78-105.9 112.7-283.1 118.2-395.8 12.3-112.68-105.88-118.2-283.08-12.3-395.78z" fill="#d7e9ff" fill-opacity="0"/><path d="M634.9300000000001 390.33000000000004c21.18-22.54 41.5-39.34 67.62-55.9l37.5 59.1c-20.9 13.26-37.16 26.7-54.1 44.73z" fill="#de5f85"/></g><g stroke="#000" stroke-opacity="0" stroke-width="2"><path d="M641.37 524.53c-57.96 137.3 6.36 295.6 143.68 353.58 137.3 57.97 295.6-6.35 353.58-143.66 57.96-137.32-6.36-295.62-143.68-353.58-137.3-57.97-295.6 6.35-353.58 143.67zM668.72 536.08c51.6-122.22 192.48-179.46 314.7-127.88 122.2 51.6 179.45 192.48 127.86 314.7-51.6 122.2-192.48 179.45-314.7 127.86-122.2-51.6-179.45-192.48-127.86-314.7z" fill="#d7e9ff"/><path d="M641.37 524.53c13.92-32.96 31.03-58.64 56.1-84.16l21.18 20.8c-22.3 22.72-37.55 45.57-49.93 74.9z" fill="#ff1014"/></g><g stroke="#000" stroke-opacity="0" stroke-width="2"><path d="M721.4300000000001 461.43c-93.1 93.1-93.1 244.04 0 337.14s244.04 93.1 337.14 0 93.1-244.04 0-337.14-244.04-93.1-337.14 0zM738.28 478.28c83.8-83.8 219.65-83.8 303.44 0 83.8 83.8 83.8 219.65 0 303.44-83.8 83.8-219.65 83.8-303.44 0-83.8-83.8-83.8-219.65 0-303.44z" fill="#d7e9ff"/><path d="M721.4300000000001 461.43c18.62-18.62 36.88-31.9 60.34-43.85l10.82 21.25c-21.12 10.76-37.56 22.7-54.32 39.45z" fill="#4297ff"/></g><g stroke="#000" stroke-opacity="0" stroke-width="2"><path d="M793.1800000000001 439.66c-104.84 53.25-146.66 181.4-93.4 286.23C753 830.72 881.17 872.54 986 819.3c104.83-53.25 146.65-181.4 93.4-286.23-53.24-104.83-181.4-146.65-286.22-93.4zM822.1 496.6c73.38-37.26 163.1-8 200.36 65.4 37.27 73.38 8 163.08-65.38 200.35-73.4 37.28-163.1 8-200.36-65.38-37.28-73.38-8-163.1 65.38-200.36z" fill="#d7e9ff"/><path d="M793.1800000000001 439.66c104.83-53.24 232.98-11.42 286.22 93.4 31.95 62.9 31.87 130.5-.24 193.32l-56.87-29.07c22.46-43.96 22.52-91.28.16-135.3-37.27-73.4-126.98-102.66-200.36-65.4z" fill="#4297ff"/></g><g stroke="#000" stroke-opacity="0" stroke-width="2"><path d="M851.15 487.53999999999996C772.47 509 726.1 590.17 747.55 668.84c21.45 78.7 102.62 125.07 181.3 103.62 78.68-21.46 125.06-102.63 103.6-181.3-21.45-78.7-102.62-125.07-181.3-103.62zm12.43 45.59c53.5-14.6 108.7 16.95 123.3 70.45 14.58 53.5-16.96 108.7-70.46 123.3-53.5 14.58-108.7-16.96-123.3-70.46-14.58-53.5 16.96-108.7 70.46-123.3z" fill="#d7e9ff"/><path d="M851.15 487.53999999999996c78.68-21.45 159.85 24.93 181.3 103.6 12.02 44.07 4.58 86.52-21.7 123.86l-38.65-27.2c17.88-25.4 22.94-54.26 14.77-84.22-14.6-53.5-69.8-85.04-123.3-70.45z" fill="#4297ff"/></g><g stroke="#000" stroke-opacity="0" stroke-width="2"><path d="M970.74 686.88c31.4-44.6 20.73-106.2-23.86-137.62-44.6-31.4-106.2-20.73-137.62 23.86-31.4 44.6-20.73 106.2 23.86 137.62 44.6 31.4 106.2 20.73 137.62-23.86zM952.97 674.36c-24.5 34.78-72.55 43.1-107.33 18.6s-43.1-72.54-18.6-107.32c24.5-34.78 72.54-43.1 107.32-18.6 34.78 24.5 43.1 72.54 18.6 107.32z" fill="#d7e9ff"/><path d="M970.74 686.88c-5.03 7.13-10.04 12.63-16.7 18.3l-14.08-16.55c5.18-4.4 9.1-8.7 13-14.27z" fill="#4297ff"/></g><g stroke="#000" stroke-opacity="0" stroke-width="2"><path d="M956.5 664.42c19.02-36.97 4.46-82.34-32.5-101.34s-82.33-4.46-101.34 32.5c-19 36.97-4.45 82.34 32.5 101.34 36.97 19 82.34 4.46 101.35-32.5zM901.64 636.2c-3.42 6.65-11.58 9.27-18.24 5.85-6.66-3.43-9.28-11.6-5.86-18.24 3.42-6.65 11.6-9.27 18.24-5.85 6.66 3.43 9.28 11.6 5.85 18.24z" fill="#d7e9ff"/><path d="M956.5 664.42c-19 36.96-64.37 51.5-101.33 32.5-36.96-19-51.5-64.37-32.5-101.34.75-1.47 1.44-2.7 2.3-4.13l52.98 31.6-.4.76c-3.43 6.66-.8 14.82 5.84 18.25 6.65 3.42 14.8.8 18.23-5.86z" fill="#4297ff"/></g><path d="M889.6 250.26H1016V280H889.6z" stroke="#000" stroke-opacity="0" stroke-width="2" fill="#fff" fill-opacity="0"/><use xlink:href="#f" transform="matrix(1,0,0,1,894.5918054247419,255.25572322701453) translate(7.099999999999994 14.4)"/><use xlink:href="#g" transform="matrix(1,0,0,1,894.5918054247419,255.25572322701453) translate(58.05 14.4)"/><g stroke="#000" stroke-opacity="0" stroke-width="2"><path d="M879.47 622.82c-3.67 5.6-2.13 13.1 3.46 16.78 5.58 3.67 13.1 2.13 16.77-3.46 3.68-5.6 2.13-13.1-3.45-16.77-5.6-3.68-13.1-2.13-16.78 3.45zm10.12 6.66z" fill="#d7e9ff"/><path d="M879.47 622.82c1.47-2.23 3.35-3.73 5.85-4.67l4.27 11.33z" fill="#4297ff"/></g><path d="M890 348.46v-97.2" stroke="#000" stroke-width="2" fill="none"/><path d="M889.84 349.48l-.84.06v-.06l.84-.02zm1.16 0l-.8-.03h-.36v-1.02H891z"/><path d="M890 251.28v-1.02" stroke="#000" stroke-width="2" fill="none"/><path d="M718.64 461.97l53.85-40.4 11.72 15.62-53.84 40.4z" stroke="#000" stroke-opacity="0" stroke-width="2" fill="#fff" fill-opacity="0"/><use xlink:href="#h" transform="matrix(0.7998030834411228,-0.6002624656915276,0.6002624656915276,0.7998030834411228,725.6449847560268,462.9645387901173) translate(0.38333333333333286 9.066666666666668)"/><use xlink:href="#i" transform="matrix(0.7998030834411228,-0.6002624656915276,0.6002624656915276,0.7998030834411228,725.6449847560268,462.9645387901173) translate(32.49444444444445 9.066666666666668)"/><path d="M961.87 478.26h78.73v19.55h-78.73z" stroke="#000" stroke-opacity="0" stroke-width="2" fill="#fff" fill-opacity="0"/><use xlink:href="#j" transform="matrix(1,0,0,1,966.869452892695,483.25939982940287) translate(11.864814814814814 9.066666666666668)"/><path d="M952.7 553.87h78.73v19.54H952.7z" stroke="#000" stroke-opacity="0" stroke-width="2" fill="#fff" fill-opacity="0"/><use xlink:href="#k" transform="matrix(1,0,0,1,957.7006623867157,558.8657992981388) translate(14.997222222222224 9.066666666666668)"/><path d="M925.22 679.36h58.73v19.54h-58.73z" stroke="#000" stroke-opacity="0" stroke-width="2" fill="#fff" fill-opacity="0"/><use xlink:href="#l" transform="matrix(1,0,0,1,930.2204699493498,684.3556920184695) translate(15.087037037037037 9.066666666666668)"/><path d="M850.8 660h66.6v19.55h-66.6z" stroke="#000" stroke-opacity="0" stroke-width="2" fill="#fff" fill-opacity="0"/><use xlink:href="#m" transform="matrix(1,0,0,1,855.7906936184683,665) translate(17.166666666666664 9.066666666666668)"/><path d="M880.64 620.57l-2.58-37.22 10.82-.75 2.57 37.22z" stroke="#000" stroke-opacity="0" stroke-width="2" fill="#fff" fill-opacity="0"/><use xlink:href="#n" transform="matrix(-0.06909082727478608,-0.9976103736361634,0.9976103736361634,-0.06909082727478608,885.2843413403414,615.2340663496923) translate(-1.678703703703702 7.288888888888889)"/><path d="M630.62 536.57l70.7-104.47 23.88 16.16-70.7 104.47z" stroke="#000" stroke-opacity="0" stroke-width="2" fill="#fff" fill-opacity="0"/><use xlink:href="#o" transform="matrix(0.5605079334563093,-0.8281490545382139,0.8281490545382139,0.5605079334563093,637.56209852826,535.230505695479) translate(22.06018518518519 11.766666666666667)"/><use xlink:href="#p" transform="matrix(0.5605079334563093,-0.8281490545382139,0.8281490545382139,0.5605079334563093,637.56209852826,535.230505695479) translate(77.37314814814815 11.766666666666667)"/><path d="M683.13 438.43l41.14 20.82.2-.4.32 1.17-1.14.43.2-.4-41.14-20.82zM740.32 394.26L800.06 454l.18-.17-.03.68-.67.04.18-.18-59.74-59.74zM803.47 363.7l54.7 149.8.25-.08-.32.6-.62-.25.23-.1-54.7-149.8zM834.26 355.2L972.8 669.6l.3-.14-.37.8-.85-.27.3-.14-138.52-314.4z" stroke="#000" stroke-width="2" fill="#fff"/><path d="M828.93 592.7L736.2 478.82l-.18.16.1-.68.67.04-.2.15 92.72 113.88zM1051.63 712.82l-95.32-48.65-.1.22-.18-.66.63-.24-.1.22 95.3 48.65z" stroke="#999" stroke-width="2" fill="#fff"/><path d="M954.18 703.14l98.8 150.3.4-.25-.32 1.17-1.2-.2.38-.23-98.8-150.3z" stroke="#ff1014" stroke-width="2" fill="#fff"/><path d="M790.22 429.9l36.08 71.84.22-.12-.25.63-.64-.18.22-.1-36.07-71.86z" stroke="#999" stroke-width="2" fill="#fff"/><path d="M1059.3 338.65l113.14 113.14-15.73 15.72-113.13-113.14z" stroke="#000" stroke-opacity="0" stroke-width="2" fill="#fff" fill-opacity="0"/><use xlink:href="#q" transform="matrix(0.7071067811865476,0.7071067811865475,-0.7071067811865475,0.7071067811865476,1059.3003805463418,345.7252017213584) translate(19.549999999999997 14.4)"/><path d="M1118.43 843l82.76-144.6 19.48 11.16-82.76 144.6z" stroke="#000" stroke-opacity="0" stroke-width="2" fill="#fff" fill-opacity="0"/><use xlink:href="#r" transform="matrix(0.4967520045343775,-0.8678925313603509,0.8678925313603509,0.4967520045343775,1125.2555018046774,841.139625765722) translate(20.424999999999997 14.4)"/><use xlink:href="#s" transform="matrix(0.4967520045343775,-0.8678925313603509,0.8678925313603509,0.4967520045343775,1125.2555018046774,841.139625765722) translate(60.675 14.4)"/><use xlink:href="#t" transform="matrix(0.4967520045343775,-0.8678925313603509,0.8678925313603509,0.4967520045343775,1125.2555018046774,841.139625765722) translate(86.625 14.4)"/><path d="M838.58 928.06h112.5v19.55h-112.5z" stroke="#000" stroke-opacity="0" stroke-width="2" fill="#fff" fill-opacity="0"/><use xlink:href="#u" transform="matrix(1,0,0,1,843.5839378044697,933.0624609586092) translate(-3.3999999999999986 14.4)"/><path d="M609.72 404.8l67.87 48.4-6.38 8.92-67.86-48.4z" stroke="#000" stroke-opacity="0" stroke-width="2" fill="#fff" fill-opacity="0"/><use xlink:href="#v" transform="matrix(0.8140902438576744,0.5807383876202368,-0.5807383876202368,0.8140902438576744,610.8914424439515,411.7606752746207) translate(4.920370370370371 9.066666666666668)"/><use xlink:href="#w" transform="matrix(0.8140902438576744,0.5807383876202368,-0.5807383876202368,0.8140902438576744,610.8914424439515,411.7606752746207) translate(43.26481481481481 9.066666666666668)"/><path d="M644.8 374.58h83.36v20H644.8z" stroke="#000" stroke-opacity="0" stroke-width="2" fill="#fff" fill-opacity="0"/><use xlink:href="#x" transform="matrix(1,0,0,1,649.8046341878178,379.57513261555954) translate(0.5287037037036981 9.066666666666668)"/><use xlink:href="#y" transform="matrix(1,0,0,1,649.8046341878178,379.57513261555954) translate(27.571296296296296 9.066666666666668)"/><use xlink:href="#z" transform="matrix(1,0,0,1,649.8046341878178,379.57513261555954) translate(38.275 9.066666666666668)"/><use xlink:href="#A" transform="matrix(1,0,0,1,649.8046341878178,379.57513261555954) translate(14.364814814814814 22.66666666666667)"/><path d="M708.7 331.45h83.35v20H708.7z" stroke="#000" stroke-opacity="0" stroke-width="2" fill="#fff" fill-opacity="0"/><use xlink:href="#x" transform="matrix(1,0,0,1,713.6928271648269,336.4532183432752) translate(0.5287037037036981 9.066666666666668)"/><use xlink:href="#y" transform="matrix(1,0,0,1,713.6928271648269,336.4532183432752) translate(27.571296296296296 9.066666666666668)"/><use xlink:href="#z" transform="matrix(1,0,0,1,713.6928271648269,336.4532183432752) translate(38.275 9.066666666666668)"/><use xlink:href="#B" transform="matrix(1,0,0,1,713.6928271648269,336.4532183432752) translate(17.497222222222224 22.66666666666667)"/><path d="M784.92 308.46h49.52v27.8h-49.52z" stroke="#000" stroke-opacity="0" stroke-width="2" fill="#fff" fill-opacity="0"/><use xlink:href="#C" transform="matrix(1,0,0,1,789.9173363702763,313.46480534778783) translate(2.401851851851852 9.066666666666668)"/><use xlink:href="#D" transform="matrix(1,0,0,1,789.9173363702763,313.46480534778783) translate(10.587037037037037 22.66666666666667)"/><path d="M834.65 359.6l-8.55-82.9 19.9-2.06 8.54 82.92z" stroke="#000" stroke-opacity="0" stroke-width="2" fill="#fff" fill-opacity="0"/><use xlink:href="#v" transform="matrix(-0.1025123623655019,-0.9947317304490915,0.9947317304490915,-0.1025123623655019,839.1108466459817,354.1287310751411) translate(6.494444444444447 9.066666666666668)"/><use xlink:href="#E" transform="matrix(-0.1025123623655019,-0.9947317304490915,0.9947317304490915,-0.1025123623655019,839.1108466459817,354.1287310751411) translate(44.83888888888889 9.066666666666668)"/><path d="M862.36 358l-8.55-82.92 19.9-2.05 8.55 82.92z" stroke="#000" stroke-opacity="0" stroke-width="2" fill="#fff" fill-opacity="0"/><use xlink:href="#F" transform="matrix(-0.1025123623655019,-0.9947317304490915,0.9947317304490915,-0.1025123623655019,866.8168600896487,352.51764189620224) translate(17.49722222222222 9.066666666666668)"/><path d="M889.6 358v-83.36h18.26V358z" stroke="#000" stroke-opacity="0" stroke-width="2" fill="#fff" fill-opacity="0"/><use xlink:href="#G" transform="matrix(6.123233995736766e-17,-1,1,6.123233995736766e-17,894.591805424742,353.0038623602751) translate(9.957716049382718 7.288888888888889)"/><use xlink:href="#H" transform="matrix(6.123233995736766e-17,-1,1,6.123233995736766e-17,894.591805424742,353.0038623602751) translate(38.75895061728394 7.288888888888889)"/><path d="M854.12 350.97l67.63 294.5.33-.07-.52.76-.8-.45.32-.07-67.62-294.5z" stroke="#000" stroke-width="2" fill="#fff"/><g><path d="M879.1 349.66l16.93 270.36h.25l-.47.47-.52-.43.25-.02L878.6 349.7z" stroke="#000" stroke-width="2" fill="#fff"/></g><g><path d="M908.04 347.73V637.8h.25l-.5.44-.5-.45h.24V347.72z" stroke="#999" stroke-width="2" fill="#fff"/></g><path d="M983.93 1025.3h184.86v-.68l1.2 1.36-1.2 1.37v-.7H983.92z" stroke="#ff1014" stroke-width="6" fill="#fff"/><path d="M985.15 1060.47H1170v-.68l1.23 1.35-1.22 1.37v-.68H985.16z" stroke="#000" stroke-width="6" fill="#fff"/><path d="M984.47 1097.17h184.85v-.7l1.23 1.38-1.23 1.36v-.67H984.47z" stroke="#999" stroke-width="6" fill="#fff"/><path d="M976.78 1000h196.62v24.28H976.78z" stroke="#000" stroke-opacity="0" stroke-width="2" fill="#fff" fill-opacity="0"/><g><use xlink:href="#I" transform="matrix(1,0,0,1,981.7843785391044,1005) translate(4.82407407407409 10.844444444444445)"/><use xlink:href="#J" transform="matrix(1,0,0,1,981.7843785391044,1005) translate(46.20617283950618 10.844444444444445)"/><use xlink:href="#K" transform="matrix(1,0,0,1,981.7843785391044,1005) translate(82.99444444444444 10.844444444444445)"/><use xlink:href="#L" transform="matrix(1,0,0,1,981.7843785391044,1005) translate(128.81975308641972 10.844444444444445)"/><use xlink:href="#M" transform="matrix(1,0,0,1,981.7843785391044,1005) translate(148.36234567901232 10.844444444444445)"/></g><path d="M976.78 1035.5h196.62v24.3H976.78z" stroke="#000" stroke-opacity="0" stroke-width="2" fill="#fff" fill-opacity="0"/><g><use xlink:href="#N" transform="matrix(1,0,0,1,981.7843785391044,1040.5142814078158) translate(13.390432098765444 10.844444444444445)"/><use xlink:href="#O" transform="matrix(1,0,0,1,981.7843785391044,1040.5142814078158) translate(59.253395061728405 10.844444444444445)"/><use xlink:href="#P" transform="matrix(1,0,0,1,981.7843785391044,1040.5142814078158) translate(129.2151234567901 10.844444444444445)"/><use xlink:href="#Q" transform="matrix(1,0,0,1,981.7843785391044,1040.5142814078158) translate(144.27685185185183 10.844444444444445)"/></g><path d="M979.2 1072.2h196.62v24.28H979.2z" stroke="#000" stroke-opacity="0" stroke-width="2" fill="#fff" fill-opacity="0"/><g><use xlink:href="#R" transform="matrix(1,0,0,1,984.1984697908024,1077.206677909252) translate(1.3975308641975488 10.844444444444445)"/><use xlink:href="#S" transform="matrix(1,0,0,1,984.1984697908024,1077.206677909252) translate(75.12469135802469 10.844444444444445)"/><use xlink:href="#T" transform="matrix(1,0,0,1,984.1984697908024,1077.206677909252) translate(113.49444444444444 10.844444444444445)"/><use xlink:href="#M" transform="matrix(1,0,0,1,984.1984697908024,1077.206677909252) translate(151.7888888888889 10.844444444444445)"/></g><path d="M617.4 996.33H860v100.15H617.4z" stroke="#000" stroke-opacity="0" stroke-width="2" fill="#fff" fill-opacity="0"/><g><use xlink:href="#U" transform="matrix(1,0,0,1,622.3910917754479,1001.329403212792) translate(16.674999999999997 27.5)"/><use xlink:href="#V" transform="matrix(1,0,0,1,622.3910917754479,1001.329403212792) translate(66.625 27.5)"/><use xlink:href="#W" transform="matrix(1,0,0,1,622.3910917754479,1001.329403212792) translate(113.475 27.5)"/><use xlink:href="#X" transform="matrix(1,0,0,1,622.3910917754479,1001.329403212792) translate(131.425 27.5)"/><use xlink:href="#Y" transform="matrix(1,0,0,1,622.3910917754479,1001.329403212792) translate(174.325 27.5)"/><use xlink:href="#Z" transform="matrix(1,0,0,1,622.3910917754479,1001.329403212792) translate(116.5 49.1)"/><use xlink:href="#aa" transform="matrix(1,0,0,1,622.3910917754479,1001.329403212792) translate(7.150000000000006 70.7)"/><use xlink:href="#ab" transform="matrix(1,0,0,1,622.3910917754479,1001.329403212792) translate(53.10000000000001 70.7)"/><use xlink:href="#ac" transform="matrix(1,0,0,1,622.3910917754479,1001.329403212792) translate(108.95 70.7)"/><use xlink:href="#ad" transform="matrix(1,0,0,1,622.3910917754479,1001.329403212792) translate(139.9 70.7)"/><use xlink:href="#ae" transform="matrix(1,0,0,1,622.3910917754479,1001.329403212792) translate(183.85 70.7)"/></g><g><path d="M838.83 600V355.52h-.25l.5-.45.5.45h-.25V600z" stroke="#ff1014" stroke-width="2" fill="#fff"/></g><g><path d="M755.5 457.2l158.1-104.43-.15-.2.65.16-.1.66-.13-.22-158.1 104.44z" stroke="#ff1014" stroke-width="2" fill="#fff"/></g><g><path d="M624.78 387.82l63.8 53.66-7.06 8.38-63.8-53.65z" stroke="#000" stroke-opacity="0" stroke-width="2" fill="#fff" fill-opacity="0"/></g><g><use xlink:href="#v" transform="matrix(0.7652946667378494,0.6436801014965462,-0.6436801014965462,0.7652946667378494,625.3905155019945,394.8640511452395) translate(5.266666666666666 9.066666666666668)"/><use xlink:href="#i" transform="matrix(0.7652946667378494,0.6436801014965462,-0.6436801014965462,0.7652946667378494,625.3905155019945,394.8640511452395) translate(43.61111111111111 9.066666666666668)"/></g><g><path d="M1034 731.3l-70.14-48.82-.14.2-.1-.66.67-.15-.16.2 70.14 48.83z" stroke="#999" stroke-width="2" fill="#fff"/></g><defs><path d="M240 0l2-218c-23 76-54 145-80 218h-23L58-218 59 0H30v-248h44l77 211c21-75 51-140 76-211h43V0h-30" id="af"/><path d="M141-36C126-15 110 5 73 4 37 3 15-17 15-53c-1-64 63-63 125-63 3-35-9-54-41-54-24 1-41 7-42 31l-33-3c5-37 33-52 76-52 45 0 72 20 72 64v82c-1 20 7 32 28 27v20c-31 9-61-2-59-35zM48-53c0 20 12 33 32 33 41-3 63-29 60-74-43 2-92-5-92 41" id="ag"/><path d="M24-231v-30h32v30H24zM24 0v-190h32V0H24" id="ah"/><path d="M117-194c89-4 53 116 60 194h-32v-121c0-31-8-49-39-48C34-167 62-67 57 0H25l-1-190h30c1 10-1 24 2 32 11-22 29-35 61-36" id="ai"/><g id="a"><use transform="matrix(0.08703703703703701,0,0,0.08703703703703701,0,0)" xlink:href="#af"/><use transform="matrix(0.08703703703703701,0,0,0.08703703703703701,26.024074074074065,0)" xlink:href="#ag"/><use transform="matrix(0.08703703703703701,0,0,0.08703703703703701,43.43148148148147,0)" xlink:href="#ah"/><use transform="matrix(0.08703703703703701,0,0,0.08703703703703701,50.30740740740739,0)" xlink:href="#ai"/></g><path d="M233-177c-1 41-23 64-60 70L243 0h-38l-65-103H63V0H30v-248c88 3 205-21 203 71zM63-129c60-2 137 13 137-47 0-61-80-42-137-45v92" id="aj"/><path d="M100-194c63 0 86 42 84 106H49c0 40 14 67 53 68 26 1 43-12 49-29l28 8c-11 28-37 45-77 45C44 4 14-33 15-96c1-61 26-98 85-98zm52 81c6-60-76-77-97-28-3 7-6 17-6 28h103" id="ak"/><path d="M85-194c31 0 48 13 60 33l-1-100h32l1 261h-30c-2-10 0-23-3-31C134-8 116 4 85 4 32 4 16-35 15-94c0-66 23-100 70-100zm9 24c-40 0-46 34-46 75 0 40 6 74 45 74 42 0 51-32 51-76 0-42-9-74-50-73" id="al"/><path d="M114-163C36-179 61-72 57 0H25l-1-190h30c1 12-1 29 2 39 6-27 23-49 58-41v29" id="am"/><path d="M177-190C167-65 218 103 67 71c-23-6-38-20-44-43l32-5c15 47 100 32 89-28v-30C133-14 115 1 83 1 29 1 15-40 15-95c0-56 16-97 71-98 29-1 48 16 59 35 1-10 0-23 2-32h30zM94-22c36 0 50-32 50-73 0-42-14-75-50-75-39 0-46 34-46 75s6 73 46 73" id="an"/><g id="b"><use transform="matrix(0.08703703703703701,0,0,0.08703703703703701,0,0)" xlink:href="#aj"/><use transform="matrix(0.08703703703703701,0,0,0.08703703703703701,22.542592592592584,0)" xlink:href="#ak"/><use transform="matrix(0.08703703703703701,0,0,0.08703703703703701,39.94999999999999,0)" xlink:href="#ai"/><use transform="matrix(0.08703703703703701,0,0,0.08703703703703701,57.357407407407386,0)" xlink:href="#al"/><use transform="matrix(0.08703703703703701,0,0,0.08703703703703701,74.7648148148148,0)" xlink:href="#ak"/><use transform="matrix(0.08703703703703701,0,0,0.08703703703703701,92.17222222222219,0)" xlink:href="#am"/><use transform="matrix(0.08703703703703701,0,0,0.08703703703703701,102.52962962962961,0)" xlink:href="#ah"/><use transform="matrix(0.08703703703703701,0,0,0.08703703703703701,109.40555555555554,0)" xlink:href="#ai"/><use transform="matrix(0.08703703703703701,0,0,0.08703703703703701,126.81296296296294,0)" xlink:href="#an"/></g><path d="M127-220V0H93v-220H8v-28h204v28h-85" id="ao"/><path d="M106-169C34-169 62-67 57 0H25v-261h32l-1 103c12-21 28-36 61-36 89 0 53 116 60 194h-32v-121c2-32-8-49-39-48" id="ap"/><g id="c"><use transform="matrix(0.08703703703703701,0,0,0.08703703703703701,0,0)" xlink:href="#ao"/><use transform="matrix(0.08703703703703701,0,0,0.08703703703703701,19.061111111111106,0)" xlink:href="#ap"/><use transform="matrix(0.08703703703703701,0,0,0.08703703703703701,36.46851851851851,0)" xlink:href="#am"/><use transform="matrix(0.08703703703703701,0,0,0.08703703703703701,46.82592592592591,0)" xlink:href="#ak"/><use transform="matrix(0.08703703703703701,0,0,0.08703703703703701,64.23333333333332,0)" xlink:href="#ag"/><use transform="matrix(0.08703703703703701,0,0,0.08703703703703701,81.64074074074072,0)" xlink:href="#al"/></g><path d="M63-220v92h138v28H63V0H30v-248h175v28H63" id="aq"/><path d="M210-169c-67 3-38 105-44 169h-31v-121c0-29-5-50-35-48C34-165 62-65 56 0H25l-1-190h30c1 10-1 24 2 32 10-44 99-50 107 0 11-21 27-35 58-36 85-2 47 119 55 194h-31v-121c0-29-5-49-35-48" id="ar"/><g id="d"><use transform="matrix(0.08703703703703701,0,0,0.08703703703703701,0,0)" xlink:href="#aq"/><use transform="matrix(0.08703703703703701,0,0,0.08703703703703701,19.061111111111106,0)" xlink:href="#am"/><use transform="matrix(0.08703703703703701,0,0,0.08703703703703701,29.41851851851851,0)" xlink:href="#ag"/><use transform="matrix(0.08703703703703701,0,0,0.08703703703703701,46.82592592592591,0)" xlink:href="#ar"/><use transform="matrix(0.08703703703703701,0,0,0.08703703703703701,72.84999999999998,0)" xlink:href="#ak"/></g><path d="M185-189c-5-48-123-54-124 2 14 75 158 14 163 119 3 78-121 87-175 55-17-10-28-26-33-46l33-7c5 56 141 63 141-1 0-78-155-14-162-118-5-82 145-84 179-34 5 7 8 16 11 25" id="as"/><path d="M179-190L93 31C79 59 56 82 12 73V49c39 6 53-20 64-50L1-190h34L92-34l54-156h33" id="at"/><path d="M96-169c-40 0-48 33-48 73s9 75 48 75c24 0 41-14 43-38l32 2c-6 37-31 61-74 61-59 0-76-41-82-99-10-93 101-131 147-64 4 7 5 14 7 22l-32 3c-4-21-16-35-41-35" id="au"/><path d="M100-194c62-1 85 37 85 99 1 63-27 99-86 99S16-35 15-95c0-66 28-99 85-99zM99-20c44 1 53-31 53-75 0-43-8-75-51-75s-53 32-53 75 10 74 51 75" id="av"/><path d="M9 0v-24l116-142H16v-24h144v24L44-24h123V0H9" id="aw"/><path d="M59-47c-2 24 18 29 38 22v24C64 9 27 4 27-40v-127H5v-23h24l9-43h21v43h35v23H59v120" id="ax"/><g id="e"><use transform="matrix(0.08703703703703701,0,0,0.08703703703703701,0,0)" xlink:href="#as"/><use transform="matrix(0.08703703703703701,0,0,0.08703703703703701,20.888888888888882,0)" xlink:href="#at"/><use transform="matrix(0.08703703703703701,0,0,0.08703703703703701,36.55555555555554,0)" xlink:href="#ai"/><use transform="matrix(0.08703703703703701,0,0,0.08703703703703701,53.96296296296295,0)" xlink:href="#au"/><use transform="matrix(0.08703703703703701,0,0,0.08703703703703701,69.6296296296296,0)" xlink:href="#ap"/><use transform="matrix(0.08703703703703701,0,0,0.08703703703703701,87.03703703703701,0)" xlink:href="#am"/><use transform="matrix(0.08703703703703701,0,0,0.08703703703703701,97.39444444444442,0)" xlink:href="#av"/><use transform="matrix(0.08703703703703701,0,0,0.08703703703703701,114.80185185185182,0)" xlink:href="#ai"/><use transform="matrix(0.08703703703703701,0,0,0.08703703703703701,132.20925925925923,0)" xlink:href="#ah"/><use transform="matrix(0.08703703703703701,0,0,0.08703703703703701,139.08518518518514,0)" xlink:href="#aw"/><use transform="matrix(0.08703703703703701,0,0,0.08703703703703701,154.7518518518518,0)" xlink:href="#ag"/><use transform="matrix(0.08703703703703701,0,0,0.08703703703703701,172.1592592592592,0)" xlink:href="#ax"/><use transform="matrix(0.08703703703703701,0,0,0.08703703703703701,180.86296296296285,0)" xlink:href="#ah"/><use transform="matrix(0.08703703703703701,0,0,0.08703703703703701,187.7388888888888,0)" xlink:href="#av"/><use transform="matrix(0.08703703703703701,0,0,0.08703703703703701,205.14629629629619,0)" xlink:href="#ai"/></g><path d="M160-131c35 5 61 23 61 61C221 17 115-2 30 0v-248c76 3 177-17 177 60 0 33-19 50-47 57zm-97-11c50-1 110 9 110-42 0-47-63-36-110-37v79zm0 115c55-2 124 14 124-45 0-56-70-42-124-44v89" id="ay"/><g id="f"><use transform="matrix(0.05,0,0,0.05,0,0)" xlink:href="#ay"/><use transform="matrix(0.05,0,0,0.05,12,0)" xlink:href="#ak"/><use transform="matrix(0.05,0,0,0.05,22,0)" xlink:href="#an"/><use transform="matrix(0.05,0,0,0.05,32,0)" xlink:href="#ah"/><use transform="matrix(0.05,0,0,0.05,35.95,0)" xlink:href="#ai"/></g><g id="g"><use transform="matrix(0.05,0,0,0.05,0,0)" xlink:href="#aq"/><use transform="matrix(0.05,0,0,0.05,10.950000000000001,0)" xlink:href="#am"/><use transform="matrix(0.05,0,0,0.05,16.900000000000002,0)" xlink:href="#ag"/><use transform="matrix(0.05,0,0,0.05,26.900000000000002,0)" xlink:href="#ar"/><use transform="matrix(0.05,0,0,0.05,41.85,0)" xlink:href="#ak"/></g><path d="M30-248c87 1 191-15 191 75 0 78-77 80-158 76V0H30v-248zm33 125c57 0 124 11 124-50 0-59-68-47-124-48v98" id="az"/><path d="M84 4C-5 8 30-112 23-190h32v120c0 31 7 50 39 49 72-2 45-101 50-169h31l1 190h-30c-1-10 1-25-2-33-11 22-28 36-60 37" id="aA"/><path d="M135-143c-3-34-86-38-87 0 15 53 115 12 119 90S17 21 10-45l28-5c4 36 97 45 98 0-10-56-113-15-118-90-4-57 82-63 122-42 12 7 21 19 24 35" id="aB"/><path d="M68-38c1 34 0 65-14 84H32c9-13 17-26 17-46H33v-38h35" id="aC"/><g id="h"><use transform="matrix(0.031481481481481485,0,0,0.031481481481481485,0,0)" xlink:href="#az"/><use transform="matrix(0.031481481481481485,0,0,0.031481481481481485,7.555555555555556,0)" xlink:href="#aA"/><use transform="matrix(0.031481481481481485,0,0,0.031481481481481485,13.851851851851853,0)" xlink:href="#aB"/><use transform="matrix(0.031481481481481485,0,0,0.031481481481481485,19.51851851851852,0)" xlink:href="#ap"/><use transform="matrix(0.031481481481481485,0,0,0.031481481481481485,25.814814814814817,0)" xlink:href="#aC"/></g><path d="M24 0v-261h32V0H24" id="aD"/><g id="i"><use transform="matrix(0.031481481481481485,0,0,0.031481481481481485,0,0)" xlink:href="#ay"/><use transform="matrix(0.031481481481481485,0,0,0.031481481481481485,7.555555555555556,0)" xlink:href="#aA"/><use transform="matrix(0.031481481481481485,0,0,0.031481481481481485,13.851851851851853,0)" xlink:href="#ah"/><use transform="matrix(0.031481481481481485,0,0,0.031481481481481485,16.33888888888889,0)" xlink:href="#aD"/><use transform="matrix(0.031481481481481485,0,0,0.031481481481481485,18.825925925925926,0)" xlink:href="#al"/></g><path d="M143 4C61 4 22-44 18-125c-5-107 100-154 193-111 17 8 29 25 37 43l-32 9c-13-25-37-40-76-40-61 0-88 39-88 99 0 61 29 100 91 101 35 0 62-11 79-27v-45h-74v-28h105v86C228-13 192 4 143 4" id="aE"/><path d="M115-194c55 1 70 41 70 98S169 2 115 4C84 4 66-9 55-30l1 105H24l-1-265h31l2 30c10-21 28-34 59-34zm-8 174c40 0 45-34 45-75s-6-73-45-74c-42 0-51 32-51 76 0 43 10 73 51 73" id="aF"/><g id="j"><use transform="matrix(0.031481481481481485,0,0,0.031481481481481485,0,0)" xlink:href="#aE"/><use transform="matrix(0.031481481481481485,0,0,0.031481481481481485,8.814814814814817,0)" xlink:href="#am"/><use transform="matrix(0.031481481481481485,0,0,0.031481481481481485,12.561111111111114,0)" xlink:href="#ag"/><use transform="matrix(0.031481481481481485,0,0,0.031481481481481485,18.85740740740741,0)" xlink:href="#aF"/><use transform="matrix(0.031481481481481485,0,0,0.031481481481481485,25.15370370370371,0)" xlink:href="#ap"/><use transform="matrix(0.031481481481481485,0,0,0.031481481481481485,31.450000000000006,0)" xlink:href="#ah"/><use transform="matrix(0.031481481481481485,0,0,0.031481481481481485,33.937037037037044,0)" xlink:href="#au"/><use transform="matrix(0.031481481481481485,0,0,0.031481481481481485,39.60370370370371,0)" xlink:href="#aB"/></g><g id="k"><use transform="matrix(0.031481481481481485,0,0,0.031481481481481485,0,0)" xlink:href="#az"/><use transform="matrix(0.031481481481481485,0,0,0.031481481481481485,7.555555555555556,0)" xlink:href="#ap"/><use transform="matrix(0.031481481481481485,0,0,0.031481481481481485,13.851851851851853,0)" xlink:href="#at"/><use transform="matrix(0.031481481481481485,0,0,0.031481481481481485,19.51851851851852,0)" xlink:href="#aB"/><use transform="matrix(0.031481481481481485,0,0,0.031481481481481485,25.185185185185187,0)" xlink:href="#ah"/><use transform="matrix(0.031481481481481485,0,0,0.031481481481481485,27.672222222222224,0)" xlink:href="#au"/><use transform="matrix(0.031481481481481485,0,0,0.031481481481481485,33.33888888888889,0)" xlink:href="#aB"/></g><g id="l"><use transform="matrix(0.031481481481481485,0,0,0.031481481481481485,0,0)" xlink:href="#az"/><use transform="matrix(0.031481481481481485,0,0,0.031481481481481485,7.555555555555556,0)" xlink:href="#aA"/><use transform="matrix(0.031481481481481485,0,0,0.031481481481481485,13.851851851851853,0)" xlink:href="#aD"/><use transform="matrix(0.031481481481481485,0,0,0.031481481481481485,16.33888888888889,0)" xlink:href="#aD"/></g><g id="m"><use transform="matrix(0.031481481481481485,0,0,0.031481481481481485,0,0)" xlink:href="#az"/><use transform="matrix(0.031481481481481485,0,0,0.031481481481481485,7.555555555555556,0)" xlink:href="#av"/><use transform="matrix(0.031481481481481485,0,0,0.031481481481481485,13.851851851851853,0)" xlink:href="#aB"/><use transform="matrix(0.031481481481481485,0,0,0.031481481481481485,19.51851851851852,0)" xlink:href="#ax"/></g><g id="n"><use transform="matrix(0.02530864197530864,0,0,0.02530864197530864,0,0)" xlink:href="#az"/><use transform="matrix(0.02530864197530864,0,0,0.02530864197530864,6.0740740740740735,0)" xlink:href="#am"/><use transform="matrix(0.02530864197530864,0,0,0.02530864197530864,9.085802469135801,0)" xlink:href="#ak"/><use transform="matrix(0.02530864197530864,0,0,0.02530864197530864,14.14753086419753,0)" xlink:href="#aB"/><use transform="matrix(0.02530864197530864,0,0,0.02530864197530864,18.703086419753085,0)" xlink:href="#ak"/><use transform="matrix(0.02530864197530864,0,0,0.02530864197530864,23.764814814814812,0)" xlink:href="#ai"/><use transform="matrix(0.02530864197530864,0,0,0.02530864197530864,28.82654320987654,0)" xlink:href="#ax"/></g><g id="o"><use transform="matrix(0.031481481481481485,0,0,0.031481481481481485,0,0)" xlink:href="#az"/><use transform="matrix(0.031481481481481485,0,0,0.031481481481481485,7.555555555555556,0)" xlink:href="#av"/><use transform="matrix(0.031481481481481485,0,0,0.031481481481481485,13.851851851851853,0)" xlink:href="#ax"/><use transform="matrix(0.031481481481481485,0,0,0.031481481481481485,17,0)" xlink:href="#ak"/><use transform="matrix(0.031481481481481485,0,0,0.031481481481481485,23.296296296296298,0)" xlink:href="#ai"/><use transform="matrix(0.031481481481481485,0,0,0.031481481481481485,29.592592592592595,0)" xlink:href="#ax"/><use transform="matrix(0.031481481481481485,0,0,0.031481481481481485,32.74074074074074,0)" xlink:href="#ah"/><use transform="matrix(0.031481481481481485,0,0,0.031481481481481485,35.227777777777774,0)" xlink:href="#ag"/><use transform="matrix(0.031481481481481485,0,0,0.031481481481481485,41.52407407407407,0)" xlink:href="#aD"/><use transform="matrix(0.031481481481481485,0,0,0.031481481481481485,44.011111111111106,0)" xlink:href="#aD"/><use transform="matrix(0.031481481481481485,0,0,0.031481481481481485,46.49814814814815,0)" xlink:href="#at"/></g><g id="p"><use transform="matrix(0.031481481481481485,0,0,0.031481481481481485,0,0)" xlink:href="#ah"/><use transform="matrix(0.031481481481481485,0,0,0.031481481481481485,2.4870370370370374,0)" xlink:href="#al"/><use transform="matrix(0.031481481481481485,0,0,0.031481481481481485,8.783333333333335,0)" xlink:href="#aD"/><use transform="matrix(0.031481481481481485,0,0,0.031481481481481485,11.270370370370372,0)" xlink:href="#ak"/></g><path d="M101-234c-31-9-42 10-38 44h38v23H63V0H32v-167H5v-23h27c-7-52 17-82 69-68v24" id="aG"/><path d="M232-93c-1 65-40 97-104 97C67 4 28-28 28-90v-158h33c8 89-33 224 67 224 102 0 64-133 71-224h33v155" id="aH"/><g id="q"><use transform="matrix(0.05,0,0,0.05,0,0)" xlink:href="#ay"/><use transform="matrix(0.05,0,0,0.05,12,0)" xlink:href="#ak"/><use transform="matrix(0.05,0,0,0.05,22,0)" xlink:href="#aG"/><use transform="matrix(0.05,0,0,0.05,27,0)" xlink:href="#av"/><use transform="matrix(0.05,0,0,0.05,37,0)" xlink:href="#am"/><use transform="matrix(0.05,0,0,0.05,42.95,0)" xlink:href="#ak"/><use transform="matrix(0.05,0,0,0.05,52.95,0)" xlink:href="#aH"/><use transform="matrix(0.05,0,0,0.05,65.9,0)" xlink:href="#aF"/><use transform="matrix(0.05,0,0,0.05,75.9,0)" xlink:href="#al"/><use transform="matrix(0.05,0,0,0.05,85.9,0)" xlink:href="#ag"/><use transform="matrix(0.05,0,0,0.05,95.9,0)" xlink:href="#ax"/><use transform="matrix(0.05,0,0,0.05,100.9,0)" xlink:href="#ak"/></g><path d="M266 0h-40l-56-210L115 0H75L2-248h35L96-30l15-64 43-154h32l59 218 59-218h35" id="aI"/><g id="r"><use transform="matrix(0.05,0,0,0.05,0,0)" xlink:href="#aI"/><use transform="matrix(0.05,0,0,0.05,16.3,0)" xlink:href="#ag"/><use transform="matrix(0.05,0,0,0.05,26.3,0)" xlink:href="#ah"/><use transform="matrix(0.05,0,0,0.05,30.25,0)" xlink:href="#ax"/></g><g id="s"><use transform="matrix(0.05,0,0,0.05,0,0)" xlink:href="#aG"/><use transform="matrix(0.05,0,0,0.05,5,0)" xlink:href="#av"/><use transform="matrix(0.05,0,0,0.05,15,0)" xlink:href="#am"/></g><g id="t"><use transform="matrix(0.05,0,0,0.05,0,0)" xlink:href="#aq"/><use transform="matrix(0.05,0,0,0.05,10.950000000000001,0)" xlink:href="#ak"/><use transform="matrix(0.05,0,0,0.05,20.950000000000003,0)" xlink:href="#ai"/><use transform="matrix(0.05,0,0,0.05,30.950000000000003,0)" xlink:href="#au"/><use transform="matrix(0.05,0,0,0.05,39.95,0)" xlink:href="#ak"/></g><g id="u"><use transform="matrix(0.05,0,0,0.05,0,0)" xlink:href="#aq"/><use transform="matrix(0.05,0,0,0.05,10.950000000000001,0)" xlink:href="#am"/><use transform="matrix(0.05,0,0,0.05,16.900000000000002,0)" xlink:href="#ag"/><use transform="matrix(0.05,0,0,0.05,26.900000000000002,0)" xlink:href="#ar"/><use transform="matrix(0.05,0,0,0.05,41.85,0)" xlink:href="#ak"/><use transform="matrix(0.05,0,0,0.05,51.85,0)" xlink:href="#aH"/><use transform="matrix(0.05,0,0,0.05,64.8,0)" xlink:href="#aF"/><use transform="matrix(0.05,0,0,0.05,74.8,0)" xlink:href="#al"/><use transform="matrix(0.05,0,0,0.05,84.8,0)" xlink:href="#ag"/><use transform="matrix(0.05,0,0,0.05,94.8,0)" xlink:href="#ax"/><use transform="matrix(0.05,0,0,0.05,99.8,0)" xlink:href="#ak"/></g><path d="M115-194c53 0 69 39 70 98 0 66-23 100-70 100C84 3 66-7 56-30L54 0H23l1-261h32v101c10-23 28-34 59-34zm-8 174c40 0 45-34 45-75 0-40-5-75-45-74-42 0-51 32-51 76 0 43 10 73 51 73" id="aJ"/><g id="v"><use transform="matrix(0.031481481481481485,0,0,0.031481481481481485,0,0)" xlink:href="#as"/><use transform="matrix(0.031481481481481485,0,0,0.031481481481481485,7.555555555555556,0)" xlink:href="#aA"/><use transform="matrix(0.031481481481481485,0,0,0.031481481481481485,13.851851851851853,0)" xlink:href="#aJ"/><use transform="matrix(0.031481481481481485,0,0,0.031481481481481485,20.148148148148152,0)" xlink:href="#ar"/><use transform="matrix(0.031481481481481485,0,0,0.031481481481481485,29.561111111111114,0)" xlink:href="#ah"/><use transform="matrix(0.031481481481481485,0,0,0.031481481481481485,32.04814814814815,0)" xlink:href="#ax"/></g><g id="w"><use transform="matrix(0.031481481481481485,0,0,0.031481481481481485,0,0)" xlink:href="#az"/><use transform="matrix(0.031481481481481485,0,0,0.031481481481481485,7.555555555555556,0)" xlink:href="#aA"/><use transform="matrix(0.031481481481481485,0,0,0.031481481481481485,13.851851851851853,0)" xlink:href="#aB"/><use transform="matrix(0.031481481481481485,0,0,0.031481481481481485,19.51851851851852,0)" xlink:href="#ap"/></g><g id="x"><use transform="matrix(0.031481481481481485,0,0,0.031481481481481485,0,0)" xlink:href="#az"/><use transform="matrix(0.031481481481481485,0,0,0.031481481481481485,7.555555555555556,0)" xlink:href="#am"/><use transform="matrix(0.031481481481481485,0,0,0.031481481481481485,11.301851851851854,0)" xlink:href="#ak"/><use transform="matrix(0.031481481481481485,0,0,0.031481481481481485,17.59814814814815,0)" xlink:href="#aF"/></g><path d="M234-2c-28 10-62 0-77-18C117 19 8 12 13-65c3-43 29-61 60-76-25-40-17-114 47-108 35 3 59 15 59 50 0 44-40 53-71 69 14 26 32 50 51 72 14-21 24-43 30-72l26 8c-9 33-21 57-38 82 13 13 33 22 57 15v23zM97-151c25-10 52-18 56-48-1-18-13-29-33-29-42 0-39 50-23 77zM42-66c-3 51 71 58 98 28-20-24-41-51-56-80-23 10-40 24-42 52" id="aK"/><use transform="matrix(0.031481481481481485,0,0,0.031481481481481485,0,0)" xlink:href="#aK" id="y"/><g id="z"><use transform="matrix(0.031481481481481485,0,0,0.031481481481481485,0,0)" xlink:href="#as"/><use transform="matrix(0.031481481481481485,0,0,0.031481481481481485,7.555555555555556,0)" xlink:href="#aA"/><use transform="matrix(0.031481481481481485,0,0,0.031481481481481485,13.851851851851853,0)" xlink:href="#aJ"/><use transform="matrix(0.031481481481481485,0,0,0.031481481481481485,20.148148148148152,0)" xlink:href="#ar"/><use transform="matrix(0.031481481481481485,0,0,0.031481481481481485,29.561111111111114,0)" xlink:href="#ah"/><use transform="matrix(0.031481481481481485,0,0,0.031481481481481485,32.04814814814815,0)" xlink:href="#ax"/></g><g id="A"><use transform="matrix(0.031481481481481485,0,0,0.031481481481481485,0,0)" xlink:href="#aE"/><use transform="matrix(0.031481481481481485,0,0,0.031481481481481485,8.814814814814817,0)" xlink:href="#am"/><use transform="matrix(0.031481481481481485,0,0,0.031481481481481485,12.561111111111114,0)" xlink:href="#ag"/><use transform="matrix(0.031481481481481485,0,0,0.031481481481481485,18.85740740740741,0)" xlink:href="#aF"/><use transform="matrix(0.031481481481481485,0,0,0.031481481481481485,25.15370370370371,0)" xlink:href="#ap"/><use transform="matrix(0.031481481481481485,0,0,0.031481481481481485,31.450000000000006,0)" xlink:href="#ah"/><use transform="matrix(0.031481481481481485,0,0,0.031481481481481485,33.937037037037044,0)" xlink:href="#au"/><use transform="matrix(0.031481481481481485,0,0,0.031481481481481485,39.60370370370371,0)" xlink:href="#aB"/></g><g id="B"><use transform="matrix(0.031481481481481485,0,0,0.031481481481481485,0,0)" xlink:href="#az"/><use transform="matrix(0.031481481481481485,0,0,0.031481481481481485,7.555555555555556,0)" xlink:href="#ap"/><use transform="matrix(0.031481481481481485,0,0,0.031481481481481485,13.851851851851853,0)" xlink:href="#at"/><use transform="matrix(0.031481481481481485,0,0,0.031481481481481485,19.51851851851852,0)" xlink:href="#aB"/><use transform="matrix(0.031481481481481485,0,0,0.031481481481481485,25.185185185185187,0)" xlink:href="#ah"/><use transform="matrix(0.031481481481481485,0,0,0.031481481481481485,27.672222222222224,0)" xlink:href="#au"/><use transform="matrix(0.031481481481481485,0,0,0.031481481481481485,33.33888888888889,0)" xlink:href="#aB"/></g><g id="C"><use transform="matrix(0.031481481481481485,0,0,0.031481481481481485,0,0)" xlink:href="#as"/><use transform="matrix(0.031481481481481485,0,0,0.031481481481481485,7.555555555555556,0)" xlink:href="#aA"/><use transform="matrix(0.031481481481481485,0,0,0.031481481481481485,13.851851851851853,0)" xlink:href="#aJ"/><use transform="matrix(0.031481481481481485,0,0,0.031481481481481485,20.148148148148152,0)" xlink:href="#ar"/><use transform="matrix(0.031481481481481485,0,0,0.031481481481481485,29.561111111111114,0)" xlink:href="#ah"/><use transform="matrix(0.031481481481481485,0,0,0.031481481481481485,32.04814814814815,0)" xlink:href="#ax"/></g><g id="D"><use transform="matrix(0.031481481481481485,0,0,0.031481481481481485,0,0)" xlink:href="#az"/><use transform="matrix(0.031481481481481485,0,0,0.031481481481481485,7.555555555555556,0)" xlink:href="#aA"/><use transform="matrix(0.031481481481481485,0,0,0.031481481481481485,13.851851851851853,0)" xlink:href="#aD"/><use transform="matrix(0.031481481481481485,0,0,0.031481481481481485,16.33888888888889,0)" xlink:href="#aD"/></g><g id="E"><use transform="matrix(0.031481481481481485,0,0,0.031481481481481485,0,0)" xlink:href="#az"/><use transform="matrix(0.031481481481481485,0,0,0.031481481481481485,7.555555555555556,0)" xlink:href="#av"/><use transform="matrix(0.031481481481481485,0,0,0.031481481481481485,13.851851851851853,0)" xlink:href="#aB"/><use transform="matrix(0.031481481481481485,0,0,0.031481481481481485,19.51851851851852,0)" xlink:href="#ax"/></g><g id="F"><use transform="matrix(0.031481481481481485,0,0,0.031481481481481485,0,0)" xlink:href="#az"/><use transform="matrix(0.031481481481481485,0,0,0.031481481481481485,7.555555555555556,0)" xlink:href="#am"/><use transform="matrix(0.031481481481481485,0,0,0.031481481481481485,11.301851851851854,0)" xlink:href="#ak"/><use transform="matrix(0.031481481481481485,0,0,0.031481481481481485,17.59814814814815,0)" xlink:href="#aB"/><use transform="matrix(0.031481481481481485,0,0,0.031481481481481485,23.26481481481482,0)" xlink:href="#ak"/><use transform="matrix(0.031481481481481485,0,0,0.031481481481481485,29.561111111111117,0)" xlink:href="#ai"/><use transform="matrix(0.031481481481481485,0,0,0.031481481481481485,35.857407407407415,0)" xlink:href="#ax"/></g><path d="M205 0l-28-72H64L36 0H1l101-248h38L239 0h-34zm-38-99l-47-123c-12 45-31 82-46 123h93" id="aL"/><path d="M145-31C134-9 116 4 85 4 32 4 16-35 15-94c0-59 17-99 70-100 32-1 48 14 60 33 0-11-1-24 2-32h30l-1 268h-32zM93-21c41 0 51-33 51-76s-8-73-50-73c-40 0-46 35-46 75s5 74 45 74" id="aM"/><g id="G"><use transform="matrix(0.02530864197530864,0,0,0.02530864197530864,0,0)" xlink:href="#aL"/><use transform="matrix(0.02530864197530864,0,0,0.02530864197530864,6.0740740740740735,0)" xlink:href="#aM"/><use transform="matrix(0.02530864197530864,0,0,0.02530864197530864,11.1358024691358,0)" xlink:href="#aA"/><use transform="matrix(0.02530864197530864,0,0,0.02530864197530864,16.197530864197528,0)" xlink:href="#ah"/><use transform="matrix(0.02530864197530864,0,0,0.02530864197530864,18.19691358024691,0)" xlink:href="#am"/><use transform="matrix(0.02530864197530864,0,0,0.02530864197530864,21.208641975308637,0)" xlink:href="#ak"/></g><path d="M33 0v-248h34V0H33" id="aN"/><g id="H"><use transform="matrix(0.02530864197530864,0,0,0.02530864197530864,0,0)" xlink:href="#aN"/><use transform="matrix(0.02530864197530864,0,0,0.02530864197530864,2.530864197530864,0)" xlink:href="#ar"/><use transform="matrix(0.02530864197530864,0,0,0.02530864197530864,10.098148148148148,0)" xlink:href="#ag"/><use transform="matrix(0.02530864197530864,0,0,0.02530864197530864,15.159876543209874,0)" xlink:href="#an"/><use transform="matrix(0.02530864197530864,0,0,0.02530864197530864,20.221604938271604,0)" xlink:href="#ak"/></g><g id="I"><use transform="matrix(0.03765432098765432,0,0,0.03765432098765432,0,0)" xlink:href="#aq"/><use transform="matrix(0.03765432098765432,0,0,0.03765432098765432,8.246296296296295,0)" xlink:href="#ak"/><use transform="matrix(0.03765432098765432,0,0,0.03765432098765432,15.777160493827159,0)" xlink:href="#ai"/><use transform="matrix(0.03765432098765432,0,0,0.03765432098765432,23.30802469135802,0)" xlink:href="#au"/><use transform="matrix(0.03765432098765432,0,0,0.03765432098765432,30.0858024691358,0)" xlink:href="#ak"/></g><path d="M87 75C49 33 22-17 22-94c0-76 28-126 65-167h31c-38 41-64 92-64 168S80 34 118 75H87" id="aO"/><path d="M212-179c-10-28-35-45-73-45-59 0-87 40-87 99 0 60 29 101 89 101 43 0 62-24 78-52l27 14C228-24 195 4 139 4 59 4 22-46 18-125c-6-104 99-153 187-111 19 9 31 26 39 46" id="aP"/><g id="J"><use transform="matrix(0.03765432098765432,0,0,0.03765432098765432,0,0)" xlink:href="#aO"/><use transform="matrix(0.03765432098765432,0,0,0.03765432098765432,4.480864197530864,0)" xlink:href="#aP"/><use transform="matrix(0.03765432098765432,0,0,0.03765432098765432,14.23333333333333,0)" xlink:href="#az"/><use transform="matrix(0.03765432098765432,0,0,0.03765432098765432,23.270370370370365,0)" xlink:href="#aH"/></g><path d="M206 0h-36l-40-164L89 0H53L-1-190h32L70-26l43-164h34l41 164 42-164h31" id="aQ"/><g id="K"><use transform="matrix(0.03765432098765432,0,0,0.03765432098765432,0,0)" xlink:href="#aQ"/><use transform="matrix(0.03765432098765432,0,0,0.03765432098765432,9.752469135802468,0)" xlink:href="#ag"/><use transform="matrix(0.03765432098765432,0,0,0.03765432098765432,17.28333333333333,0)" xlink:href="#ah"/><use transform="matrix(0.03765432098765432,0,0,0.03765432098765432,20.258024691358024,0)" xlink:href="#ax"/><use transform="matrix(0.03765432098765432,0,0,0.03765432098765432,24.023456790123454,0)" xlink:href="#ah"/><use transform="matrix(0.03765432098765432,0,0,0.03765432098765432,26.998148148148147,0)" xlink:href="#ai"/><use transform="matrix(0.03765432098765432,0,0,0.03765432098765432,34.52901234567901,0)" xlink:href="#an"/></g><g id="L"><use transform="matrix(0.03765432098765432,0,0,0.03765432098765432,0,0)" xlink:href="#aG"/><use transform="matrix(0.03765432098765432,0,0,0.03765432098765432,3.765432098765432,0)" xlink:href="#av"/><use transform="matrix(0.03765432098765432,0,0,0.03765432098765432,11.296296296296296,0)" xlink:href="#am"/></g><path d="M33-261c38 41 65 92 65 168S71 34 33 75H2C39 34 66-17 66-93S39-220 2-261h31" id="aR"/><g id="M"><use transform="matrix(0.03765432098765432,0,0,0.03765432098765432,0,0)" xlink:href="#aE"/><use transform="matrix(0.03765432098765432,0,0,0.03765432098765432,10.543209876543209,0)" xlink:href="#az"/><use transform="matrix(0.03765432098765432,0,0,0.03765432098765432,19.580246913580247,0)" xlink:href="#aH"/><use transform="matrix(0.03765432098765432,0,0,0.03765432098765432,29.332716049382714,0)" xlink:href="#aR"/></g><g id="N"><use transform="matrix(0.03765432098765432,0,0,0.03765432098765432,0,0)" xlink:href="#as"/><use transform="matrix(0.03765432098765432,0,0,0.03765432098765432,9.037037037037036,0)" xlink:href="#aA"/><use transform="matrix(0.03765432098765432,0,0,0.03765432098765432,16.5679012345679,0)" xlink:href="#aJ"/><use transform="matrix(0.03765432098765432,0,0,0.03765432098765432,24.098765432098762,0)" xlink:href="#ar"/><use transform="matrix(0.03765432098765432,0,0,0.03765432098765432,35.35740740740741,0)" xlink:href="#ah"/><use transform="matrix(0.03765432098765432,0,0,0.03765432098765432,38.3320987654321,0)" xlink:href="#ax"/></g><g id="O"><use transform="matrix(0.03765432098765432,0,0,0.03765432098765432,0,0)" xlink:href="#au"/><use transform="matrix(0.03765432098765432,0,0,0.03765432098765432,6.777777777777777,0)" xlink:href="#av"/><use transform="matrix(0.03765432098765432,0,0,0.03765432098765432,14.30864197530864,0)" xlink:href="#ar"/><use transform="matrix(0.03765432098765432,0,0,0.03765432098765432,25.56728395061728,0)" xlink:href="#ar"/><use transform="matrix(0.03765432098765432,0,0,0.03765432098765432,36.82592592592592,0)" xlink:href="#ag"/><use transform="matrix(0.03765432098765432,0,0,0.03765432098765432,44.35679012345678,0)" xlink:href="#ai"/><use transform="matrix(0.03765432098765432,0,0,0.03765432098765432,51.88765432098765,0)" xlink:href="#al"/><use transform="matrix(0.03765432098765432,0,0,0.03765432098765432,59.41851851851851,0)" xlink:href="#aB"/></g><g id="P"><use transform="matrix(0.03765432098765432,0,0,0.03765432098765432,0,0)" xlink:href="#ax"/><use transform="matrix(0.03765432098765432,0,0,0.03765432098765432,3.765432098765432,0)" xlink:href="#av"/></g><g id="Q"><use transform="matrix(0.03765432098765432,0,0,0.03765432098765432,0,0)" xlink:href="#aE"/><use transform="matrix(0.03765432098765432,0,0,0.03765432098765432,10.543209876543209,0)" xlink:href="#az"/><use transform="matrix(0.03765432098765432,0,0,0.03765432098765432,19.580246913580247,0)" xlink:href="#aH"/></g><g id="R"><use transform="matrix(0.03765432098765432,0,0,0.03765432098765432,0,0)" xlink:href="#as"/><use transform="matrix(0.03765432098765432,0,0,0.03765432098765432,9.037037037037036,0)" xlink:href="#ak"/><use transform="matrix(0.03765432098765432,0,0,0.03765432098765432,16.5679012345679,0)" xlink:href="#ar"/><use transform="matrix(0.03765432098765432,0,0,0.03765432098765432,27.82654320987654,0)" xlink:href="#ag"/><use transform="matrix(0.03765432098765432,0,0,0.03765432098765432,35.35740740740741,0)" xlink:href="#aF"/><use transform="matrix(0.03765432098765432,0,0,0.03765432098765432,42.88827160493827,0)" xlink:href="#ap"/><use transform="matrix(0.03765432098765432,0,0,0.03765432098765432,50.41913580246913,0)" xlink:href="#av"/><use transform="matrix(0.03765432098765432,0,0,0.03765432098765432,57.94999999999999,0)" xlink:href="#am"/><use transform="matrix(0.03765432098765432,0,0,0.03765432098765432,62.43086419753085,0)" xlink:href="#ak"/></g><g id="S"><use transform="matrix(0.03765432098765432,0,0,0.03765432098765432,0,0)" xlink:href="#aO"/><use transform="matrix(0.03765432098765432,0,0,0.03765432098765432,4.480864197530864,0)" xlink:href="#as"/><use transform="matrix(0.03765432098765432,0,0,0.03765432098765432,13.517901234567901,0)" xlink:href="#at"/><use transform="matrix(0.03765432098765432,0,0,0.03765432098765432,20.29567901234568,0)" xlink:href="#ai"/><use transform="matrix(0.03765432098765432,0,0,0.03765432098765432,27.826543209876544,0)" xlink:href="#au"/></g><g id="T"><use transform="matrix(0.03765432098765432,0,0,0.03765432098765432,0,0)" xlink:href="#aQ"/><use transform="matrix(0.03765432098765432,0,0,0.03765432098765432,9.752469135802468,0)" xlink:href="#ah"/><use transform="matrix(0.03765432098765432,0,0,0.03765432098765432,12.72716049382716,0)" xlink:href="#ax"/><use transform="matrix(0.03765432098765432,0,0,0.03765432098765432,16.49259259259259,0)" xlink:href="#ap"/><use transform="matrix(0.03765432098765432,0,0,0.03765432098765432,24.023456790123454,0)" xlink:href="#ah"/><use transform="matrix(0.03765432098765432,0,0,0.03765432098765432,26.998148148148147,0)" xlink:href="#ai"/></g><path d="M140-251c81 0 123 46 123 126C263-46 219 4 140 4 59 4 17-45 17-125s42-126 123-126zm0 227c63 0 89-41 89-101s-29-99-89-99c-61 0-89 39-89 99S79-25 140-24" id="aS"/><g id="U"><use transform="matrix(0.05,0,0,0.05,0,0)" xlink:href="#aS"/><use transform="matrix(0.05,0,0,0.05,14,0)" xlink:href="#aA"/><use transform="matrix(0.05,0,0,0.05,24,0)" xlink:href="#ax"/><use transform="matrix(0.05,0,0,0.05,29,0)" xlink:href="#ak"/><use transform="matrix(0.05,0,0,0.05,39,0)" xlink:href="#am"/></g><g id="V"><use transform="matrix(0.05,0,0,0.05,0,0)" xlink:href="#au"/><use transform="matrix(0.05,0,0,0.05,9,0)" xlink:href="#ah"/><use transform="matrix(0.05,0,0,0.05,12.949999999999998,0)" xlink:href="#am"/><use transform="matrix(0.05,0,0,0.05,18.9,0)" xlink:href="#au"/><use transform="matrix(0.05,0,0,0.05,27.899999999999995,0)" xlink:href="#aD"/><use transform="matrix(0.05,0,0,0.05,31.849999999999994,0)" xlink:href="#ak"/></g><g id="W"><use transform="matrix(0.05,0,0,0.05,0,0)" xlink:href="#ah"/><use transform="matrix(0.05,0,0,0.05,3.95,0)" xlink:href="#aB"/></g><g id="X"><use transform="matrix(0.05,0,0,0.05,0,0)" xlink:href="#aP"/><use transform="matrix(0.05,0,0,0.05,12.950000000000001,0)" xlink:href="#az"/><use transform="matrix(0.05,0,0,0.05,24.950000000000003,0)" xlink:href="#aH"/></g><path d="M143 0L79-87 56-68V0H24v-261h32v163l83-92h37l-77 82L181 0h-38" id="aT"/><g id="Y"><use transform="matrix(0.05,0,0,0.05,0,0)" xlink:href="#ax"/><use transform="matrix(0.05,0,0,0.05,5,0)" xlink:href="#ag"/><use transform="matrix(0.05,0,0,0.05,15,0)" xlink:href="#aB"/><use transform="matrix(0.05,0,0,0.05,24,0)" xlink:href="#aT"/><use transform="matrix(0.05,0,0,0.05,33,0)" xlink:href="#aB"/></g><g id="aa"><use transform="matrix(0.05,0,0,0.05,0,0)" xlink:href="#aN"/><use transform="matrix(0.05,0,0,0.05,5,0)" xlink:href="#ai"/><use transform="matrix(0.05,0,0,0.05,15,0)" xlink:href="#ai"/><use transform="matrix(0.05,0,0,0.05,25,0)" xlink:href="#ak"/><use transform="matrix(0.05,0,0,0.05,35,0)" xlink:href="#am"/></g><g id="ab"><use transform="matrix(0.05,0,0,0.05,0,0)" xlink:href="#au"/><use transform="matrix(0.05,0,0,0.05,9,0)" xlink:href="#ah"/><use transform="matrix(0.05,0,0,0.05,12.949999999999998,0)" xlink:href="#am"/><use transform="matrix(0.05,0,0,0.05,18.9,0)" xlink:href="#au"/><use transform="matrix(0.05,0,0,0.05,27.899999999999995,0)" xlink:href="#aD"/><use transform="matrix(0.05,0,0,0.05,31.849999999999994,0)" xlink:href="#ak"/><use transform="matrix(0.05,0,0,0.05,41.849999999999994,0)" xlink:href="#aB"/></g><g id="ac"><use transform="matrix(0.05,0,0,0.05,0,0)" xlink:href="#ag"/><use transform="matrix(0.05,0,0,0.05,10,0)" xlink:href="#am"/><use transform="matrix(0.05,0,0,0.05,15.949999999999998,0)" xlink:href="#ak"/></g><g id="ad"><use transform="matrix(0.05,0,0,0.05,0,0)" xlink:href="#aE"/><use transform="matrix(0.05,0,0,0.05,14,0)" xlink:href="#az"/><use transform="matrix(0.05,0,0,0.05,26,0)" xlink:href="#aH"/></g><g id="ae"><use transform="matrix(0.05,0,0,0.05,0,0)" xlink:href="#ax"/><use transform="matrix(0.05,0,0,0.05,5,0)" xlink:href="#ag"/><use transform="matrix(0.05,0,0,0.05,15,0)" xlink:href="#aB"/><use transform="matrix(0.05,0,0,0.05,24,0)" xlink:href="#aT"/><use transform="matrix(0.05,0,0,0.05,33,0)" xlink:href="#aB"/></g></defs></g></svg>